<?xml version="1.0" encoding="utf-8"?>
<!-- Generator: Adobe Illustrator 23.0.1, SVG Export Plug-In . SVG Version: 6.00 Build 0)  -->
<svg version="1.1" id="Layer_1" xmlns="http://www.w3.org/2000/svg" xmlns:xlink="http://www.w3.org/1999/xlink" x="0px" y="0px"
	 viewBox="0 0 248 57" style="enable-background:new 0 0 248 57;" xml:space="preserve">
<style type="text/css">
	.st0{fill:#1A202C;}
</style>
<g>
	<path class="st0" d="M0,43.1c0-1.1,0.1-2.1,0.2-3c0.1-0.9,0.3-1.9,0.6-3h6v2.5c0,1.4,0.1,2.6,0.3,3.6c0.2,1,0.4,1.9,0.8,2.7
		c0.4,0.7,0.9,1.3,1.5,1.6c0.6,0.4,1.4,0.5,2.4,0.5c1.5,0,2.6-0.4,3.4-1.2c0.8-0.8,1.2-2,1.2-3.5c0-0.8-0.1-1.5-0.2-2.2
		c-0.1-0.7-0.3-1.3-0.6-2c-0.3-0.7-0.6-1.3-1.1-2.1c-0.5-0.7-1-1.5-1.8-2.4l-8-9.5c-1.4-1.8-2.5-3.7-3.3-5.5
		c-0.8-1.9-1.2-3.8-1.2-5.9c0-1.7,0.3-3.2,0.8-4.6c0.5-1.4,1.3-2.6,2.3-3.6c1-1,2.2-1.8,3.7-2.4c1.5-0.6,3.1-0.8,4.9-0.8
		c2.2,0,4.1,0.3,5.6,1s2.7,1.5,3.6,2.5c0.9,1,1.5,2.2,1.9,3.5s0.5,2.6,0.5,3.8c0,1.1-0.1,2.1-0.3,3c-0.2,0.9-0.4,1.9-0.6,3h-5.9
		v-2.4c0-2.7-0.4-4.8-1.2-6.2c-0.8-1.4-2-2.2-3.8-2.2c-1.4,0-2.5,0.4-3.2,1.2c-0.7,0.8-1.1,1.9-1.1,3.2c0,0.7,0.1,1.4,0.2,1.9
		c0.1,0.6,0.3,1.1,0.5,1.6c0.2,0.5,0.5,1,0.8,1.4c0.3,0.5,0.6,0.9,1,1.4l8.9,10.8c1.6,2.1,2.9,4.2,3.7,6.1c0.9,1.9,1.3,4,1.3,6.2
		c0,1.8-0.3,3.4-0.8,4.9c-0.6,1.4-1.4,2.7-2.4,3.7c-1,1-2.3,1.8-3.8,2.3c-1.5,0.5-3.2,0.8-5,0.8c-2.3,0-4.2-0.3-5.7-0.9
		c-1.5-0.6-2.7-1.4-3.6-2.4c-0.9-1-1.5-2.2-1.9-3.4C0.2,45.8,0,44.5,0,43.1z"/>
	<path class="st0" d="M30.3,2.7h18.8v6.1H38v15.2h8.6V30H38v17.4h11.4v6.1H30.3V2.7z"/>
	<path class="st0" d="M55,2.7h7.7c1,0,2,0,3.2,0.1s2.3,0.3,3.5,0.6c1.2,0.3,2.3,0.8,3.4,1.5c1.1,0.7,2,1.6,2.9,2.7
		c0.8,1.2,1.5,2.6,2,4.4c0.5,1.7,0.8,3.9,0.8,6.4v1.8c0,2.7-0.2,5-0.7,7c-0.5,1.9-1.1,3.6-1.9,4.9c-0.8,1.3-1.7,2.4-2.7,3.2
		c-1,0.8-2.1,1.4-3.2,1.8c-1.1,0.4-2.2,0.7-3.3,0.8c-1.1,0.1-2.2,0.2-3.2,0.2h-0.7v15.4H55V2.7z M63.1,32.3c1.4,0,2.6-0.2,3.5-0.6
		c0.9-0.4,1.7-1,2.3-1.9c0.6-0.9,1-2,1.2-3.3s0.4-3,0.4-4.9V17c0-1.5-0.1-2.8-0.3-3.9c-0.2-1.1-0.6-2-1.2-2.7
		c-0.6-0.7-1.3-1.2-2.3-1.6c-1-0.3-2.1-0.5-3.6-0.5h-0.4v24H63.1z"/>
	<path class="st0" d="M84,2.7h7.8v37.2c0,1.6,0.1,2.9,0.2,3.9c0.2,1,0.4,1.9,0.8,2.5c0.3,0.6,0.8,1.1,1.3,1.3
		c0.5,0.3,1.2,0.4,1.9,0.4c0.8,0,1.4-0.1,2-0.4c0.6-0.3,1-0.7,1.4-1.3c0.4-0.6,0.6-1.5,0.8-2.5c0.2-1,0.3-2.4,0.3-3.9V2.7h7.7v35.1
		c0,2.5-0.2,4.6-0.6,6.4c-0.4,1.8-0.9,3.2-1.6,4.4c-0.7,1.2-1.4,2.1-2.2,2.8c-0.8,0.7-1.7,1.2-2.6,1.6c-0.9,0.4-1.8,0.6-2.7,0.7
		c-0.9,0.1-1.7,0.1-2.4,0.1c-0.7,0-1.5,0-2.4-0.1c-0.9-0.1-1.8-0.3-2.7-0.7c-0.9-0.4-1.8-0.9-2.6-1.6c-0.8-0.7-1.6-1.6-2.2-2.8
		c-0.7-1.2-1.2-2.7-1.6-4.4c-0.4-1.8-0.6-3.9-0.6-6.4V2.7z"/>
	<path class="st0" d="M116.6,2.7h7.7v44.7h10.5v6.1h-18.2V2.7z"/>
	<path class="st0" d="M135.9,2.7h7.9l5.6,40.2h0.3l5.6-40.2h7.8l-9.2,50.7h-8.8L135.9,2.7z"/>
	<path class="st0" d="M168,2.7h18.8v6.1h-11.1v15.2h8.6V30h-8.6v17.4h11.4v6.1H168V2.7z"/>
	<path class="st0" d="M192.7,2.7h8c1.2,0,2.5,0,3.8,0.1c1.3,0.1,2.6,0.3,3.8,0.6c1.2,0.4,2.4,0.9,3.5,1.6c1.1,0.7,2.1,1.8,2.9,3.1
		c0.8,1.3,1.5,3,2,5c0.5,2,0.7,4.5,0.7,7.4v14.7c0,2.9-0.2,5.4-0.7,7.5c-0.5,2-1.1,3.7-2,5c-0.8,1.3-1.8,2.4-2.9,3.1
		c-1.1,0.7-2.3,1.3-3.5,1.6c-1.2,0.4-2.5,0.6-3.8,0.6c-1.3,0.1-2.5,0.1-3.8,0.1h-8V2.7z M202.3,48c1.4,0,2.5-0.2,3.4-0.5
		s1.6-1,2.1-1.9c0.5-0.9,0.9-2.1,1.1-3.7c0.2-1.6,0.3-3.5,0.3-5.9V20.3c0-2.4-0.1-4.3-0.3-5.9c-0.2-1.6-0.6-2.8-1.1-3.7
		c-0.5-0.9-1.2-1.5-2.1-1.9c-0.9-0.4-2-0.5-3.4-0.5h-2V48H202.3z"/>
	<path class="st0" d="M229.8,2.7h8.8l9.4,50.7h-7.8l-1.4-9.1h-9.3l-1.3,9.1h-7.8L229.8,2.7z M237.9,38.5l-3.6-25.3H234l-3.6,25.3
		H237.9z"/>
</g>
</svg>
